Coordinates
version=1
nRows=6
nColumns=63
inDegrees=yes

Units are S.I. units (second, meters, Newtons, ...)
If the header above contains a line with 'inDegrees', this indicates whether rotational values are in degrees (yes) or radians (no).

endheader
time	pelvis_tilt	pelvis_list	pelvis_rotation	pelvis_tx	pelvis_ty	pelvis_tz	hip_flexion_r	hip_adduction_r	hip_rotation_r	knee_angle_r	knee_angle_r_beta	ankle_angle_r	subtalar_angle_r	mtp_angle_r	hip_flexion_l	hip_adduction_l	hip_rotation_l	knee_angle_l	knee_angle_l_beta	ankle_angle_l	subtalar_angle_l	mtp_angle_l	L5_S1_Flex_Ext	L5_S1_Lat_Bending	L5_S1_axial_rotation	L4_L5_Flex_Ext	L4_L5_Lat_Bending	L4_L5_axial_rotation	L3_L4_Flex_Ext	L3_L4_Lat_Bending	L3_L4_axial_rotation	L2_L3_Flex_Ext	L2_L3_Lat_Bending	L2_L3_axial_rotation	L1_L2_Flex_Ext	L1_L2_Lat_Bending	L1_L2_axial_rotation	L1_T12_Flex_Ext	L1_T12_Lat_Bending	L1_T12_axial_rotation	Abs_r3	Abs_r2	Abs_r1	Abs_t1	Abs_t2	neck_flexion	neck_bending	neck_rotation	arm_flex_r	arm_add_r	arm_rot_r	elbow_flex_r	pro_sup_r	wrist_flex_r	wrist_dev_r	arm_flex_l	arm_add_l	arm_rot_l	elbow_flex_l	pro_sup_l	wrist_flex_l	wrist_dev_l
4.100000	2.450716	-12.978319	104.057624	0.234817	0.340410	0.689099	5.917662	1.443215	-10.594051	10.912121	0.190452	29.652386	6.091336	0.000000	2.946473	-1.530318	1.438745	4.762848	0.083127	29.225239	-6.549950	0.000000	-0.134404	0.227439	0.003826	-0.249602	0.302494	0.004065	-0.220813	0.552995	0.004065	-0.153610	0.552995	0.003347	-0.124808	0.463794	0.003108	-0.076799	0.352303	0.002869	-0.960035	2.572836	0.021276	0.000000	0.000000	23.765141	-9.233138	-14.952323	13.152590	-21.253454	69.530758	16.248626	21.033620	1.823891	5.244134	4.110648	-19.276886	46.841276	23.164334	41.463941	-2.556607	-2.014723
4.116667	2.453267	-13.087827	103.897727	0.235142	0.341578	0.689163	6.390238	1.255193	-12.401338	11.693415	0.204089	30.088190	8.258140	0.000000	3.087870	-1.536938	0.884880	4.827376	0.084254	29.004859	-6.089884	0.000000	-0.122425	0.218795	-0.040980	-0.227355	0.290997	-0.043541	-0.201132	0.531978	-0.043541	-0.139919	0.531978	-0.035857	-0.113684	0.446167	-0.033296	-0.069953	0.338913	-0.030735	-0.874468	2.475053	-0.227918	0.000000	0.000000	23.588701	-9.215691	-15.051868	12.681355	-22.207609	56.085879	18.692890	29.439579	1.510128	7.343078	1.798677	-19.828499	30.464647	28.706515	49.658536	-2.677052	0.371704
4.133333	2.469674	-13.176969	103.684467	0.235406	0.342914	0.689152	6.801527	1.098013	-13.912512	12.369585	0.215890	30.353034	10.044335	0.000000	3.189880	-1.556771	0.292894	4.862547	0.084867	28.748003	-5.662669	0.000000	-0.110916	0.216477	-0.086692	-0.205982	0.287915	-0.092110	-0.182224	0.526343	-0.092110	-0.126766	0.526343	-0.075856	-0.102996	0.441441	-0.070437	-0.063377	0.335324	-0.065019	-0.792260	2.448836	-0.482156	0.000000	0.000000	23.178952	-9.239033	-14.983547	12.758820	-23.134475	45.158467	20.881871	35.276387	1.173883	8.971866	-0.146925	-20.380800	18.523988	33.864220	53.633912	-3.121339	2.114514
4.150000	2.501798	-13.240449	103.411180	0.235594	0.344334	0.689035	7.140591	0.979325	-15.136237	12.932627	0.225717	30.464783	11.492912	0.000000	3.239364	-1.593740	-0.364499	4.860742	0.084836	28.485269	-5.233873	0.000000	-0.102371	0.221654	-0.129188	-0.190113	0.294799	-0.137262	-0.168185	0.538929	-0.137262	-0.117000	0.538929	-0.113039	-0.095062	0.451996	-0.104965	-0.058495	0.343342	-0.096891	-0.731226	2.507391	-0.718503	0.000000	0.000000	22.570504	-9.295521	-14.694934	13.071001	-24.153315	34.172022	23.236435	41.031381	0.540124	10.410122	-2.055002	-20.932598	7.143821	39.063896	56.004578	-3.635619	3.578050
4.166667	2.560988	-13.313937	103.089273	0.235719	0.345786	0.688892	7.447187	0.909782	-16.046468	13.368926	0.233332	30.409600	12.562697	0.000000	3.289913	-1.650725	-1.047537	4.839573	0.084466	28.225985	-4.818808	0.000000	-0.091886	0.233204	-0.152587	-0.170641	0.310161	-0.162124	-0.150959	0.567012	-0.162124	-0.105016	0.567012	-0.133514	-0.085325	0.475549	-0.123977	-0.052504	0.361233	-0.114441	-0.656332	2.638049	-0.848645	0.000000	0.000000	21.771815	-9.404099	-14.407620	13.518729	-25.245425	23.300240	25.707961	46.591606	-0.442491	11.841919	-3.682423	-21.376389	-2.906582	43.953015	57.322804	-4.042707	5.107459
4.183333	2.640701	-13.383931	102.710145	0.235818	0.347250	0.688744	7.703126	0.893720	-16.578924	13.670492	0.238595	30.164904	13.192700	0.000000	3.323793	-1.726725	-1.748403	4.794746	0.083684	27.966694	-4.437531	0.000000	-0.082302	0.250015	-0.151145	-0.152844	0.332520	-0.160592	-0.135214	0.607886	-0.160592	-0.094063	0.607886	-0.132252	-0.076426	0.509831	-0.122805	-0.047028	0.387273	-0.113359	-0.587877	2.828219	-0.840624	0.000000	0.000000	20.805595	-9.549653	-14.136325	14.056806	-26.383515	12.876814	28.233533	51.831641	-1.673161	13.179562	-4.897993	-21.682261	-11.825444	48.425330	57.479242	-3.909896	6.802850
